# AST/ASF file generated using VICON BodyLanguage
# -----------------------------------------------
:version 1.10
:name VICON
:units
  mass 1.0
  length 0.45
  angle deg
:documentation
   .ast/.asf automatically generated from VICON data using
   VICON BodyBuilder and BodyLanguage model FoxedUp or BRILLIANT.MOD
:root
   order TX TY TZ RX RY RZ
   axis XYZ
   position 0 0 0  
   orientation 0 0 0 
:bonedata
  begin
     id 1 
     name lhipjoint
     direction 0.606768 -0.715223 0.346827 
     length 2.41543 
     axis 0 0 0  XYZ
  end
  begin
     id 2 
     name lfemur
     direction 0.34202 -0.939693 0  
     length 7.2778  
     axis 0 0 20  XYZ
    dof rx ry rz
    limits (-160.0 20.0)
           (-70.0 70.0)
           (-60.0 70.0)
  end
  begin
     id 3 
     name ltibia
     direction 0.34202 -0.939693 0   
     length 7.61811   
     axis 0 0 20   XYZ
    dof rx
    limits (-10.0 170.0)
  end
  begin
     id 4 
     name lfoot
     direction 0.0823924 -0.226371 0.97055   
     length 2.33618   
     axis -90 7.62852e-016 20   XYZ
    dof rx rz
    limits (-45.0 90.0)
           (-70.0 20.0)
  end
  begin
     id 5 
     name ltoes
     direction 1.53554e-011 -4.21934e-011 1   
     length 1.17015   
     axis -90 7.62852e-016 20   XYZ
    dof rx
    limits (-90.0 20.0)
  end
  begin
     id 6 
     name rhipjoint
     direction -0.6077 -0.714582 0.346516   
     length 2.4176  
     axis 0 0 0  XYZ 
  end
  begin
     id 7 
     name rfemur
     direction -0.34202 -0.939693 0   
     length 7.28127   
     axis 0 0 -20   XYZ
    dof rx ry rz
    limits (-160.0 20.0)
           (-70.0 70.0)
           (-70.0 60.0)
  end
  begin
     id 8 
     name rtibia
     direction -0.34202 -0.939693 0   
     length 7.77648   
     axis 0 0 -20   XYZ
    dof rx
    limits (-10.0 170.0)
 end
 begin
     id 9 
     name rfoot
     direction -0.0809463 -0.222398 0.97159   
     length 2.37533  
     axis -90 -7.62852e-016 -20   XYZ
    dof rx rz
    limits (-45.0 90.0)
           (-20.0 70.0)
  end
  begin
     id 10 
     name rtoes
     direction -1.53568e-011 -4.21714e-011 1   
     length 1.18972   
     axis -90 -7.62852e-016 -20   XYZ
    dof rx
    limits (-90.0 20.0)
  end
  begin
     id 11 
     name lowerback
     direction 0.010968 0.991932 -0.126297   
     length 2.21698   
     axis 0 0 0   XYZ
    dof rx ry rz
    limits (-20.0 45.0)
           (-30.0 30.0)
           (-30.0 30.0)
  end
  begin
     id 12 
     name upperback
     direction 0.0167007 0.997503 -0.0686276   
     length 2.22371   
     axis 0 0 0   XYZ
    dof rx ry rz
    limits (-20.0 45.0)
           (-30.0 30.0)
           (-30.0 30.0)
  end
  begin
     id 13 
     name thorax
     direction 0.0111721 0.999885 -0.0102878   
     length 2.25242   
     axis 0 0 0   XYZ
    dof rx ry rz
    limits (-20.0 45.0)
           (-30.0 30.0)
           (-30.0 30.0)
  end
  begin
     id 14 
     name lowerneck
     direction -0.0120265 0.990428 0.137508   
     length 1.57674   
     axis 0 0 0   XYZ
    dof rx ry rz
    limits (-20.0 45.0)
           (-30.0 30.0)
           (-30.0 30.0)
  end
  begin
     id 15 
     name upperneck
     direction 0.0175669 0.998907 0.0433089   
     length 1.5618   
     axis 0 0 0   XYZ
    dof rx ry rz
    limits (-20.0 45.0)
           (-30.0 30.0)
           (-30.0 30.0)
  end
  begin
     id 16
     name head
     direction 0.00754609 0.99997 0.00185367  
     length 1.60579  
     axis 0 0 0   XYZ
    dof rx ry rz
    limits (-20.0 45.0)
           (-30.0 30.0)
           (-30.0 30.0)
  end
  begin
     id 17 
     name lclavicle
     direction 0.885866 0.429166 -0.176231  
     length 3.44967  
     axis 0 0 0   XYZ
    dof ry rz
    limits (-20.0 10.0)
           (0.0 20.0)
  end
  begin
     id 18 
     name lhumerus
     direction 1 -4.48973e-011 -1.90255e-027   
     length 5.20607   
     axis 180 -30 -90   XYZ
    dof rx ry rz
    limits (-60.0 90.0)
           (-90.0 90.0)
           (-90.0 90.0)
  end
  begin
     id 19
     name lradius
     direction 1 -4.48956e-011 9.87925e-027   
     length 3.39961   
     axis 180 -30 -90   XYZ
    dof rx
    limits (-10.0 170.0)
  end
  begin
     id 20
     name lwrist
     direction 1 -4.48985e-011 1.73247e-026   
     length 1.6998   
     axis -9.60847e-015 90 90   XYZ
    dof ry
    limits (-180.0 0.0)
 end
  begin
     id 21 
     name lhand
     direction 1 -4.48798e-011 3.46119e-026   
     length 0.519693   
     axis -2.21073e-014 90 90   XYZ
    dof rx rz
    limits (-90.0 90.0)
           (-45.0 45.0)
  end
  begin
     id 22 
     name lfingers
     direction 1 -4.48938e-011 6.92797e-026   
     length 0.41899   
     axis -4.42155e-014 90 90   XYZ
    dof rx
    limits (0.0 90.0)
  end
  begin
     id 23
     name lthumb
     direction 0.707107 -6.34952e-011 0.707107   
     length 0.601588   
     axis -90 45 6.0103e-014   XYZ
    dof rx rz
    limits (-45.0 45.0)
           (-45.0 45.0)
  end
  begin
     id 24 
     name rclavicle
     direction -0.866736 0.456792 -0.200276   
     length 3.45032  
     axis 0 0 0   XYZ 
    dof ry rz
    limits (-10.0 20.0)
           (-20.0 0.0)
  end
  begin
     id 25 
     name rhumerus
     direction -1 -4.4897e-011 8.65094e-028  
     length 5.32214   
     axis 180 30 90   XYZ
    dof rx ry rz
    limits (-90.0 60.0)
           (-90.0 90.0)
           (-90.0 90.0)
  end
  begin
     id 26 
     name rradius
     direction -1 -4.48987e-011 1.08427e-026   
     length 3.51208   
     axis 180 30 90   XYZ
    dof rx
    limits (-10.0 170.0)
  end
  begin
     id 27 
     name rwrist
     direction -1 -4.48961e-011 1.73222e-026   
     length 1.75604   
     axis -9.60847e-015 -90 -90   XYZ
    dof ry
    limits (-180.0 0.0)
  end
  begin
     id 28
     name rhand
     direction -1 -4.48895e-011 3.46314e-026   
     length 0.586681   
     axis -2.21073e-014 -90 -90   XYZ
    dof rx rz
    limits (-90.0 90.0)
           (-45.0 45.0)
  end
  begin
     id 29
     name rfingers
     direction -1 -4.48968e-011 6.92916e-026   
     length 0.472997   
     axis -4.42155e-014 -90 -90   XYZ
    dof rx
    limits (0.0 90.0)
  end
  begin
     id 30
     name rthumb
     direction -0.707107 -6.34848e-011 0.707107   
     length 0.679133   
     axis -90 -45 -6.0103e-014   XYZ
    dof rx rz
    limits (-45.0 45.0)
           (-45.0 45.0)
  end
:hierarchy
  begin
    root lhipjoint rhipjoint lowerback
    lhipjoint lfemur
    lfemur ltibia
    ltibia lfoot
    lfoot ltoes
    rhipjoint rfemur
    rfemur rtibia
    rtibia rfoot
    rfoot rtoes
    lowerback upperback
    upperback thorax
    thorax lowerneck lclavicle rclavicle
    lowerneck upperneck
    upperneck head
    lclavicle lhumerus
    lhumerus lradius
    lradius lwrist
    lwrist lhand lthumb
    lhand lfingers
    rclavicle rhumerus
    rhumerus rradius
    rradius rwrist
    rwrist rhand rthumb
    rhand rfingers
  end

#!OML:ASF H:\Dans Jumps\Project 1\Capture day 1\Session 1\subject.ASF
:FULLY-SPECIFIED
:DEGREES
31
root 0.405279 17.0639 -14.9521 8.15033 -0.428374 -2.20639
lowerback 5.88627 -0.405274 0.597058
upperback 4.54406 -0.528558 2.41754
thorax 1.39776 -0.286146 2.17614
lowerneck -13.6339 0.70914 -1.55895
upperneck 31.4495 1.5924 -0.447147
head 12.7074 0.455828 0.332888
rclavicle 1.37161e-014 -2.10712e-014
rhumerus -9.36014 -0.687095 -83.2454
rradius 35.019
rwrist 20.1649
rhand -20.5276 -25.8153
rfingers 7.12502
rthumb 5.83048 -55.7151
lclavicle 1.37161e-014 -2.10712e-014
lhumerus -8.7145 -15.4078 86.6757
lradius 30.2555
lwrist 14.8696
lhand -26.8771 -4.22003
lfingers 7.12502
lthumb -0.301394 25.7595
rfemur -28.0458 -3.4757 20.925
rtibia 37.6744
rfoot -16.3175 -3.28781
rtoes 7.36364
lfemur -27.33 10.1401 -18.0124
ltibia 37.5422
lfoot -15.9762 3.93243
ltoes -0.88536
32
root 0.406886 17.0373 -14.9804 8.23161 -0.480097 -2.22394
lowerback 6.18601 -0.402316 0.596577
upperback 4.57597 -0.519241 2.43615
thorax 1.26443 -0.281608 2.19774
lowerneck -13.6651 0.729528 -1.55221
upperneck 31.1852 1.63591 -0.508393
head 12.6054 0.470669 0.313821
rclavicle -4.87022e-015 -9.93923e-015
rhumerus -9.05578 -0.393192 -83.1313
rradius 35.4079
rwrist 19.8563
rhand -20.733 -25.7636
rfingers 7.12502
rthumb 5.63216 -55.6687
lclavicle -4.87022e-015 -9.93923e-015
lhumerus -8.47645 -15.5326 86.507
lradius 30.7597
lwrist 15.2195
lhand -27.0452 -4.41999
lfingers 7.12502
lthumb -0.463779 25.5593
rfemur -28.5883 -3.44279 20.9554
rtibia 38.2915
rfoot -16.4543 -3.33256
rtoes 7.14496
lfemur -27.8739 10.2198 -18.0417
ltibia 38.1919
lfoot -16.1612 3.98939
ltoes -0.961867
33
root 0.408499 17.0091 -15.01 8.31913 -0.533867 -2.24194
lowerback 6.49266 -0.398888 0.594304
upperback 4.61565 -0.509398 2.45537
thorax 1.1355 -0.276897 2.22099
lowerneck -13.6991 0.750711 -1.54776
upperneck 30.9003 1.68055 -0.569583
head 12.4962 0.486082 0.295398
rclavicle 6.36111e-015 1.15295e-014
rhumerus -8.74501 -0.0963851 -83.0067
rradius 35.7903
rwrist 19.5482
rhand -20.9529 -25.7428
rfingers 7.12502
rthumb 5.41985 -55.6535
lclavicle 6.36111e-015 1.15295e-014
lhumerus -8.23401 -15.6248 86.3283
lradius 31.2658
lwrist 15.6197
lhand -27.2148 -4.61643
lfingers 7.12502
lthumb -0.627588 25.3624
rfemur -29.1545 -3.41366 20.9873
rtibia 38.9317
rfoot -16.601 -3.37345
rtoes 6.92629
lfemur -28.4424 10.2912 -18.0716
ltibia 38.8688
lfoot -16.353 4.06095
ltoes -1.03843
34
root 0.410171 16.9791 -15.0407 8.41697 -0.587661 -2.25957
lowerback 6.80311 -0.396275 0.59118
upperback 4.65879 -0.500655 2.47445
thorax 1.00831 -0.272766 2.24468
lowerneck -13.7314 0.773441 -1.54527
upperneck 30.5975 1.72677 -0.6294
head 12.3801 0.502481 0.278106
rclavicle 5.96354e-016 9.14409e-015
rhumerus -8.43816 0.19469 -82.8728
rradius 36.1619
rwrist 19.2507
rhand -21.1955 -25.7215
rfingers 7.12502
rthumb 5.18554 -55.638
lclavicle 5.96354e-016 9.14409e-015
lhumerus -7.99701 -15.687 86.1425
lradius 31.7654
lwrist 16.0556
lhand -27.4355 -4.89376
lfingers 7.12502
lthumb -0.840659 25.0843
rfemur -29.7488 -3.39171 21.0197
rtibia 39.5968
rfoot -16.7612 -3.40683
rtoes 6.71272
lfemur -29.0394 10.3494 -18.1033
ltibia 39.5717
lfoot -16.549 4.14999
ltoes -1.11336
35
root 0.412065 16.9474 -15.0723 8.5259 -0.640493 -2.27976
lowerback 7.11769 -0.395304 0.591932
upperback 4.70403 -0.493816 2.49438
thorax 0.881265 -0.269517 2.26723
lowerneck -13.7723 0.79921 -1.53896
upperneck 30.2853 1.77741 -0.693839
head 12.2629 0.520872 0.259171
rclavicle 9.93923e-016 7.55382e-015
rhumerus -8.13733 0.468062 -82.7285
rradius 36.5199
rwrist 18.9665
rhand -21.4456 -25.6999
rfingers 7.12502
rthumb 4.94413 -55.6223
lclavicle 9.93923e-016 7.55382e-015
lhumerus -7.7775 -15.7039 85.9538
lradius 32.2661
lwrist 16.505
lhand -27.6853 -5.22993
lfingers 7.12502
lthumb -1.082 24.7471
rfemur -30.3723 -3.37804 21.0554
rtibia 40.2878
rfoot -16.9351 -3.43179
rtoes 6.50451
lfemur -29.6655 10.3954 -18.1341
ltibia 40.3006
lfoot -16.7499 4.2543
ltoes -1.18364
36
root 0.414216 16.914 -15.1046 8.64775 -0.69297 -2.30269
lowerback 7.43401 -0.395375 0.595816
upperback 4.74812 -0.488053 2.51631
thorax 0.752331 -0.266752 2.29021
lowerneck -13.8244 0.829079 -1.52523
upperneck 29.9759 1.83521 -0.769145
head 12.1502 0.54193 0.236077
rclavicle -7.95139e-016 5.96354e-015
rhumerus -7.84839 0.707901 -82.5726
rradius 36.847
rwrist 18.7199
rhand -21.7028 -25.6547
rfingers 7.12502
rthumb 4.69576 -55.5827
lclavicle -7.95139e-016 5.96354e-015
lhumerus -7.58265 -15.6786 85.7658
lradius 32.7686
lwrist 16.9686
lhand -27.9494 -5.59763
lfingers 7.12502
lthumb -1.33703 24.3779
rfemur -31.0256 -3.37149 21.0943
rtibia 41.0035
rfoot -17.1221 -3.4468
rtoes 6.30516
lfemur -30.3205 10.4314 -18.1644
ltibia 41.0533
lfoot -16.9566 4.37271
ltoes -1.24459
37
root 0.416615 16.8788 -15.1375 8.78685 -0.74377 -2.32876
lowerback 7.74928 -0.396823 0.604649
upperback 4.78831 -0.48364 2.53928
thorax 0.620177 -0.264542 2.31161
lowerneck -13.8866 0.862456 -1.50386
upperneck 29.6704 1.89824 -0.85234
head 12.0422 0.565189 0.209662
rclavicle -2.98177e-015 0
rhumerus -7.57851 0.903465 -82.4083
rradius 37.1417
rwrist 18.5093
rhand -21.954 -25.5956
rfingers 7.12502
rthumb 4.45318 -55.5288
lclavicle -2.98177e-015 0
lhumerus -7.41875 -15.6136 85.5797
lradius 33.2721
lwrist 17.4422
lhand -28.2118 -5.96864
lfingers 7.12502
lthumb -1.59042 24.0052
rfemur -31.7142 -3.3731 21.1379
rtibia 41.7422
rfoot -17.3175 -3.45385
rtoes 6.11085
lfemur -31.0104 10.4608 -18.1954
ltibia 41.8289
lfoot -17.1679 4.50405
ltoes -1.30145
